<svg width="34" height="24" viewBox="0 0 34 24" fill="none" xmlns="http://www.w3.org/2000/svg">
<rect x="1.19836" y="3" width="5" height="19.3" fill="#D9D9D9"/>
<path d="M14.1984 0H19.1984L20.6984 0.5L22.1984 1.5L23.6984 3L24.6984 4.5L25.1984 6L25.3984 12.5V16V19.2056L24.6984 21L24.3984 21.5L23.9984 22L22.9984 23L21.6984 24H19.1984H14.1984V0Z" fill="#980305"/>
<path d="M13.8915 0H15.3915V24H13.8915V0Z" fill="#D9D9D9"/>
<path d="M16.6984 0H18.1984V24H16.6984V0Z" fill="#D9D9D9"/>
<path d="M24.893 12.3198L24.8929 12.3198L24.8928 12.3239C24.8579 14.0008 24.1908 15.6341 23.1984 16.8544C22.2049 18.0761 20.896 18.872 19.5838 18.8988C18.2435 18.9262 13.3556 18.4775 8.8024 17.4126C6.52598 16.8802 4.34078 16.1955 2.72695 15.3432C1.92 14.917 1.26105 14.4516 0.804905 13.9466C0.349593 13.4426 0.0999755 12.9036 0.1 12.3259C0.10006 10.921 1.23858 9.78652 3.02559 8.884C4.806 7.9848 7.19346 7.33552 9.61154 6.88666C12.0282 6.43805 14.4687 6.19084 16.351 6.09297C17.2923 6.04403 18.0927 6.03251 18.6798 6.05162C18.9737 6.06118 19.2123 6.07836 19.3876 6.10196C19.4755 6.11377 19.5454 6.12693 19.5975 6.14088C19.6531 6.15574 19.677 6.16863 19.6832 6.17357L19.7556 6.23141L19.8143 6.1684C19.8183 6.16729 19.8307 6.16444 19.8577 6.16576C19.9018 6.16791 19.9651 6.18036 20.0475 6.20599C20.2112 6.25695 20.4323 6.35417 20.6919 6.4946C21.2103 6.77496 21.8705 7.22105 22.5138 7.79118C23.8056 8.93597 25.0026 10.5564 24.893 12.3198Z" fill="black" stroke="black" strokeWidth="0.2"/>
<path d="M11.6984 9H17.6984H19.6984H20.1984L21.1984 9.5L21.6984 10L22.1984 11L22.3984 11.5L22.4984 12V12.5V13.1719L22.3984 13.5L22.1984 14L21.6984 15L21.1984 15.5L20.6984 16L20.015 16.2H17.6984H11.6984V9Z" fill="#980305"/>
<path d="M21.6984 12.55C21.6984 14.1792 20.3776 15.5 18.7484 15.5C17.1191 15.5 15.7984 14.1792 15.7984 12.55C15.7984 10.9208 17.1191 9.6 18.7484 9.6C20.3776 9.6 21.6984 10.9208 21.6984 12.55Z" fill="url(#paint0_linear_214_94)" stroke="black" strokeWidth="0.2"/>
<path d="M25.2984 8.6H29.0984V16.9H25.2984V8.6Z" fill="black" stroke="black" strokeWidth="0.2"/>
<path d="M28.6984 6.5L29.1711 7.5V17.5L28.6984 18.5V19V22.5H33.8984V2.5H33.4256H29.1711L28.6984 3V6.5Z" fill="#980305" stroke="black" strokeWidth="0.2"/>
<path d="M8.19988 12C7.99988 12.5 5.1707 16.2236 4.49996 16C3 15.5 -4.1367e-05 14 0.147589 12.2289C0.322866 10.126 3 9 4.5 8.5C4.5 8.5 7.99988 11.5 8.19988 12Z" fill="#980305"/>
<path d="M6.54314 12.2239C6.54314 12.721 6.14019 13.1239 5.64314 13.1239C5.14608 13.1239 4.74314 12.721 4.74314 12.2239C4.74314 11.7269 5.14608 11.3239 5.64314 11.3239C6.14019 11.3239 6.54314 11.7269 6.54314 12.2239Z" fill="white"/>
<defs>
<linearGradient id="paint0_linear_214_94" x1="21.7984" y1="12.55" x2="15.6984" y2="12.55" gradientUnits="userSpaceOnUse">
<stop offset="0.6" stopColor="#D9D9D9"/>
<stop offset="0.98" stopColor="#564666"/>
</linearGradient>
</defs>
</svg>
