<svg width="50" height="50" viewBox="0 0 50 50" fill="none" xmlns="http://www.w3.org/2000/svg">
<rect width="50" height="50" rx="25" fill="white"/>
<path d="M7.5 13.2225L9.74 11L39 40.26L36.7775 42.5L19.75 25.4725V34.625C19.75 36.2495 19.1047 37.8074 17.956 38.956C16.8074 40.1047 15.2495 40.75 13.625 40.75C12.0005 40.75 10.4426 40.1047 9.29397 38.956C8.14531 37.8074 7.5 36.2495 7.5 34.625C7.5 33.0005 8.14531 31.4426 9.29397 30.294C10.4426 29.1453 12.0005 28.5 13.625 28.5C14.57 28.5 15.4625 28.71 16.25 29.095V21.9725L7.5 13.2225ZM40.75 9.25V31.125C40.75 32.875 39.9975 34.485 38.79 35.605L30.145 26.96C31.265 25.7525 32.875 25 34.625 25C35.57 25 36.4625 25.21 37.25 25.595V15.3225L21.7975 18.6125L17.405 14.22L40.75 9.25Z" fill="black"/>
</svg>
